<svg xmlns="http://www.w3.org/2000/svg" width="512.46802" height="507.914" viewBox="0 0 135.59049 134.38558"><path d="M0 .024 135.59 0v134.385H.035Z" style="fill:#2b9345;fill-opacity:1;fill-rule:nonzero;stroke:none;stroke-width:1.75115"/><path d="M124.845 12.368c-.1-1.522-.562-2.616-1.36-3.294-.932-.79-1.98-.69-2.02-.681H15.91c-3.59.3-4.537 3.3-4.544 3.332l-.006.027 9.698 110.291c.603 3.909 4.506 4.252 4.543 4.252h25.593l-.14 4.562 33.962.148.138-5.148 25.448.149c5.416-1.392 5.133-5.99 5.133-6.038z" style="fill:#fff;fill-opacity:1;fill-rule:nonzero;stroke:none;stroke-width:1.75115"/><path d="m52.265 129.687 31.608.14.107-4.001a1.174 1.174 0 0 1 1.173-1.142h.007l25.294.147c4.13-1.137 4.124-4.434 4.106-4.81v-.053c0-.033.002-.066.003-.098l9.105-107.509c-.084-1.131-.403-1.935-.944-2.39a1.727 1.727 0 0 0-1.088-.414h-.023c-.049.007-.1.01-.147.01H15.961c-2.3.211-3.18 1.813-3.41 2.34l9.672 109.994c.45 2.774 3.084 3.177 3.434 3.219h25.538a1.175 1.175 0 0 1 1.173 1.21zm32.751 2.492h-.006l-33.96-.149a1.171 1.171 0 0 1-1.169-1.212l.102-3.352H25.6c-.97 0-5.038-.933-5.702-5.244-.006-.025-.007-.051-.009-.077l-9.698-110.29a1.17 1.17 0 0 1 .028-.382l.004-.017c.197-.846 1.672-3.905 5.59-4.233l.096-.003h105.49c.064-.006.143-.01.237-.01.442 0 1.578.094 2.608.97 1.056.894 1.653 2.278 1.774 4.111a1.31 1.31 0 0 1-.003.177L116.91 120c.013.844-.165 5.635-6.017 7.141a1.246 1.246 0 0 1-.298.036l-24.3-.142-.106 4.001a1.175 1.175 0 0 1-1.173 1.142" style="fill:#fff;fill-opacity:1;fill-rule:nonzero;stroke:none;stroke-width:1.75115"/><path d="m31.2 19.993 66.403-.007S80.29 27.422 66.3 45.877l-35.022.01z" style="fill:#f5821f;fill-opacity:1;fill-rule:nonzero;stroke:none;stroke-width:1.75115"/><path d="m32.376 21.166.072 23.546 33.272-.009c7.23-9.407 15.287-15.872 20.814-19.66a84.485 84.485 0 0 1 6.206-3.882zm-1.098 25.895a1.173 1.173 0 0 1-1.173-1.172l-.08-25.892c0-.312.125-.612.344-.832.219-.223.518-.345.83-.345l66.404-.007a1.175 1.175 0 0 1 .462 2.252c-.17.073-17.207 7.55-30.83 25.523a1.171 1.171 0 0 1-.934.462z" style="fill:#fff;fill-opacity:1;fill-rule:nonzero;stroke:none;stroke-width:1.75115"/><path d="M107.953 18.817v28.239s-17.347 5.879-22.054 24.406H58.537s8.545-37.641 49.416-52.645" style="fill:#ed1c24;fill-opacity:1;fill-rule:nonzero;stroke:none;stroke-width:1.75115"/><path d="M60.071 70.288h24.924c2.643-9.388 8.48-15.447 12.982-18.907 3.826-2.944 7.292-4.522 8.803-5.135V20.515C86.973 28.239 75.303 41.46 68.958 51.319c-5.451 8.467-7.995 15.941-8.887 18.969M85.9 72.636H58.537c-.357 0-.693-.163-.916-.441a1.172 1.172 0 0 1-.229-.993c.09-.392 2.268-9.742 9.539-21.07 4.267-6.65 9.412-12.586 15.292-17.65 7.35-6.327 15.871-11.297 25.326-14.767a1.173 1.173 0 0 1 1.578 1.101v28.24c0 .504-.321.948-.797 1.111-.043.014-4.27 1.48-8.993 5.128-6.283 4.852-10.422 11.062-12.303 18.457-.13.52-.597.884-1.135.884" style="fill:#fff;fill-opacity:1;fill-rule:nonzero;stroke:none;stroke-width:1.75115"/><path d="M55.021 95.87H83.54s-2.063 26.172-.585 32.935H53.253s-.585-21.469 1.768-32.936" style="fill:#ed1c24;fill-opacity:1;fill-rule:nonzero;stroke:none;stroke-width:1.75115"/><path d="M54.402 127.63h27.175c-.91-7.359.325-25.565.695-30.588H55.989c-1.802 9.84-1.662 26.152-1.587 30.588m28.556 2.348H53.253a1.173 1.173 0 0 1-1.173-1.144c-.024-.88-.562-21.733 1.792-33.2.112-.546.591-.94 1.15-.94H83.54c.324 0 .639.138.861.378.221.242.331.562.309.89-.021.257-2.016 25.854-.627 32.506a1.172 1.172 0 0 1-1.124 1.51" style="fill:#fff;fill-opacity:1;fill-rule:nonzero;stroke:none;stroke-width:1.75115"/><path d="m27.331 73.75 10.777-.052v4.123h-4.846v3.963h4.555v3.83h-4.555v3.97h4.706v4.41h-10.6ZM52.822 73.734h10.726v4.048h-4.85v3.916h4.56v3.754h-4.56v3.906H63.4v4.337H52.822ZM81.053 73.698H91.77v4.122h-4.857v3.963h4.567v3.831h-4.567v3.969h4.714v4.41H81.053ZM41.002 73.859h5.635v15.723h3.971v4.266h-9.571zM65.019 73.75h4.98l2.276 14.965L75.03 73.75h4.252l-3.385 20.098h-8.388zM94.128 73.859h5.735v1.162s3.086-1.61 5.145-1.765c0 0 2.497-.285 4.12 3.236v17.356h-5.593V78.701s-1.803-2.466-3.672.143v14.852h-5.735zM92.008 100.015c0 1.585-1.349 2.875-2.99 2.875-.784 0-1.55-.296-2.104-.842a2.81 2.81 0 0 1-.87-2.033c0-.753.31-1.483.87-2.025a3.048 3.048 0 0 1 2.104-.849c.811 0 1.547.312 2.123.85.562.54.867 1.27.867 2.024m-2.99-3.315c-1.89 0-3.434 1.502-3.434 3.315 0 .89.352 1.718 1.01 2.332a3.44 3.44 0 0 0 2.424.974c.923 0 1.792-.341 2.436-.974a3.194 3.194 0 0 0 0-4.653 3.42 3.42 0 0 0-2.436-.994" style="fill:#2b9345;fill-opacity:1;fill-rule:nonzero;stroke:none;stroke-width:1.75115"/><path d="M88.057 99.675v-1.442h.82c.322 0 .597.047.747.177.169.123.246.305.246.557 0 .226-.077.401-.246.517-.168.122-.436.19-.777.19zm2.681 2.252-.996-1.83a2.01 2.01 0 0 0 .532-.422c.163-.216.238-.438.238-.708 0-.2-.036-.39-.143-.557a1.07 1.07 0 0 0-.387-.436 1.288 1.288 0 0 0-.45-.164 4.64 4.64 0 0 0-.851-.065h-1.172v.488l.035 1.904v1.902c0 .136.104.243.228.243.142 0 .26-.107.26-.243v-1.902h1.185l1.07 2.015c.071.11.213.17.318.11.134-.068.184-.215.134-.335" style="fill:#2b9345;fill-opacity:1;fill-rule:nonzero;stroke:none;stroke-width:1.75115"/><path d="M124.845 12.368c-.1-1.522-.562-2.616-1.36-3.294-.932-.79-1.98-.69-2.02-.681H15.91c-3.59.3-4.537 3.3-4.544 3.332l-.006.027 9.698 110.291c.603 3.909 4.506 4.252 4.543 4.252h25.593l-.14 4.562 33.962.148.138-5.148 25.448.149c5.416-1.392 5.133-5.99 5.133-6.038z" style="fill:#fff;fill-opacity:1;fill-rule:nonzero;stroke:none;stroke-width:1.75115"/><path d="m31.2 19.993 66.403-.007S80.29 27.422 66.3 45.877l-35.022.01z" style="fill:#f5821f;fill-opacity:1;fill-rule:nonzero;stroke:none;stroke-width:1.75115"/><path d="M107.953 18.817v28.239s-17.347 5.879-22.054 24.406H58.537s8.545-37.641 49.416-52.645M55.021 95.87H83.54s-2.063 26.172-.585 32.935H53.253s-.585-21.469 1.768-32.936" style="fill:#ed1c24;fill-opacity:1;fill-rule:nonzero;stroke:none;stroke-width:1.75115"/><path d="m27.331 73.75 10.777-.052v4.123h-4.846v3.963h4.555v3.83h-4.555v3.97h4.706v4.41h-10.6ZM52.822 73.734h10.726v4.048h-4.85v3.916h4.56v3.754h-4.56v3.906H63.4v4.337H52.822ZM81.053 73.698H91.77v4.122h-4.857v3.963h4.567v3.831h-4.567v3.969h4.714v4.41H81.053ZM41.002 73.859h5.635v15.723h3.971v4.266h-9.571zM65.019 73.75h4.98l2.276 14.965L75.03 73.75h4.252l-3.385 20.098h-8.388zM94.128 73.859h5.735v1.162s3.086-1.61 5.145-1.765c0 0 2.497-.285 4.12 3.236v17.356h-5.593V78.701s-1.803-2.466-3.672.143v14.852h-5.735zM92.008 100.015c0 1.585-1.349 2.875-2.99 2.875-.784 0-1.55-.296-2.104-.842a2.81 2.81 0 0 1-.87-2.033c0-.753.31-1.483.87-2.025a3.048 3.048 0 0 1 2.104-.849c.811 0 1.547.312 2.123.85.562.54.867 1.27.867 2.024m-2.99-3.315c-1.89 0-3.434 1.502-3.434 3.315 0 .89.352 1.718 1.01 2.332a3.44 3.44 0 0 0 2.424.974c.923 0 1.792-.341 2.436-.974a3.194 3.194 0 0 0 0-4.653 3.42 3.42 0 0 0-2.436-.994" style="fill:#2b9345;fill-opacity:1;fill-rule:nonzero;stroke:none;stroke-width:1.75115"/><path d="M88.057 99.675v-1.442h.82c.322 0 .597.047.747.177.169.123.246.305.246.557 0 .226-.077.401-.246.517-.168.122-.436.19-.777.19zm2.681 2.252-.996-1.83a2.01 2.01 0 0 0 .532-.422c.163-.216.238-.438.238-.708 0-.2-.036-.39-.143-.557a1.07 1.07 0 0 0-.387-.436 1.288 1.288 0 0 0-.45-.164 4.64 4.64 0 0 0-.851-.065h-1.172v.488l.035 1.904v1.902c0 .136.104.243.228.243.142 0 .26-.107.26-.243v-1.902h1.185l1.07 2.015c.071.11.213.17.318.11.134-.068.184-.215.134-.335" style="fill:#2b9345;fill-opacity:1;fill-rule:nonzero;stroke:none;stroke-width:1.75115"/></svg>